<svg xmlns="http://www.w3.org/2000/svg" xmlns:xlink="http://www.w3.org/1999/xlink" width="180" height="76" viewBox="0 0 180 76"><defs><linearGradient id="a" x1="92.75" y1="6.44" x2="120.57" y2="6.44" gradientUnits="userSpaceOnUse"><stop offset="0" stop-color="#fff"/><stop offset="0.07" stop-color="#e6f6fb"/><stop offset="0.26" stop-color="#a5def2"/><stop offset="0.45" stop-color="#6fcaea"/><stop offset="0.62" stop-color="#44bbe3"/><stop offset="0.78" stop-color="#26b0df"/><stop offset="0.91" stop-color="#14a9dc"/><stop offset="1" stop-color="#0da7db"/></linearGradient><linearGradient id="b" x1="74.64" y1="13.39" x2="113.4" y2="13.39" xlink:href="#a"/><linearGradient id="c" x1="93.98" y1="1.04" x2="93.98" y2="25.53" gradientUnits="userSpaceOnUse"><stop offset="0" stop-color="#fff"/><stop offset="0.08" stop-color="#dcf3fa"/><stop offset="0.22" stop-color="#a5e0f3"/><stop offset="0.35" stop-color="#75cfec"/><stop offset="0.49" stop-color="#4ec2e7"/><stop offset="0.63" stop-color="#2fb7e2"/><stop offset="0.76" stop-color="#19b0df"/><stop offset="0.88" stop-color="#0cacde"/><stop offset="1" stop-color="#08aadd"/></linearGradient></defs><title>logo-Paradigma</title><path d="M118.89,12.57S130.45-4.05,93,1.4l-.25,2.05s34.71-3,26,8.68" fill="url(#a)"/><path d="M21.43,54.7a13.07,13.07,0,0,1-2.24,6.36,7.1,7.1,0,0,1-6.06,3.18,6.36,6.36,0,0,1-5.75-2.85l-.84,8H.75L3.3,45.07H8.62l.1,2.49a7.4,7.4,0,0,1,2.71-2,8.07,8.07,0,0,1,3.35-.75Q22.46,44.84,21.43,54.7Zm-6-.07a11.64,11.64,0,0,0,0-3.91,2.82,2.82,0,0,0-3.07-2,3.47,3.47,0,0,0-3.36,2.06A12.08,12.08,0,0,0,8,54.62a11.07,11.07,0,0,0,.08,3.86A2.72,2.72,0,0,0,11,60.55a3.59,3.59,0,0,0,3.5-2A12.47,12.47,0,0,0,15.39,54.63Z" fill="#013e6b"/><path d="M39.49,63.88H34.28l-.1-2.47a6,6,0,0,1-2.79,2,9.36,9.36,0,0,1-3.47.65q-7,0-6.32-6.48a6.57,6.57,0,0,1,2.84-4.87,9.87,9.87,0,0,1,5.89-1.69A6.47,6.47,0,0,1,35,52.66l.26-2.49q.24-2.29-3.51-2.3A14.16,14.16,0,0,0,25.86,49l-.21-3a23,23,0,0,1,7.9-1.37q7.95,0,7.23,6.88Zm-5-6.55q.39-3.7-3.1-3.71t-4,3.73q-.36,3.42,3.2,3.42A3.45,3.45,0,0,0,34.53,57.33Z" fill="#013e6b"/><path d="M56,49.68a7.21,7.21,0,0,0-4.23,1.24,6.09,6.09,0,0,0-2.61,4.6l-.88,8.38H42.51l2-18.75h5.64L49.71,49a6.66,6.66,0,0,1,2.15-3,5.58,5.58,0,0,1,3.54-1.34,4.84,4.84,0,0,1,1.12.1Z" fill="#013e6b"/><path d="M73,63.94H67.82l-.1-2.47a6,6,0,0,1-2.79,2,9.32,9.32,0,0,1-3.47.65q-7,0-6.32-6.47A6.57,6.57,0,0,1,58,52.79a9.87,9.87,0,0,1,5.89-1.69,6.46,6.46,0,0,1,4.7,1.61l.26-2.49q.24-2.29-3.51-2.3a14.16,14.16,0,0,0-5.91,1.16l-.21-3a23,23,0,0,1,7.9-1.37q7.95,0,7.23,6.88Zm-5-6.55q.39-3.71-3.1-3.71t-4,3.73q-.36,3.42,3.2,3.42A3.45,3.45,0,0,0,68.08,57.38Z" fill="#013e6b"/><path d="M94,64H88.69l-.1-2.5a7.3,7.3,0,0,1-2.7,2,8.12,8.12,0,0,1-3.36.75q-7.71,0-6.67-9.86A12.65,12.65,0,0,1,78.18,48a7.52,7.52,0,0,1,6.36-3.18q3.89,0,5.4,2.67l.85-8.15h5.8Zm-4.73-9.54a11.11,11.11,0,0,0-.08-3.87,2.72,2.72,0,0,0-2.93-2.09,3.59,3.59,0,0,0-3.51,2,12.56,12.56,0,0,0-.86,3.9,11.72,11.72,0,0,0,0,3.92q.57,2,3.08,2a3.48,3.48,0,0,0,3.37-2.06A12.13,12.13,0,0,0,89.28,54.43Z" fill="#013e6b"/><path d="M103,64H97.17l2-18.76h5.82Zm2.16-20.63H99.33l.42-4h5.82Z" fill="#013e6b"/><path d="M124.52,61.46a8.58,8.58,0,0,1-3.63,6.46A13.06,13.06,0,0,1,113.13,70a20.57,20.57,0,0,1-7.3-1.26L107,65.39a16.39,16.39,0,0,0,5.85,1.05q5.62,0,6-3.81l.21-2q-1.76,3.16-6.31,3.15a6.09,6.09,0,0,1-5.73-3,10.35,10.35,0,0,1-1-6.32,11.22,11.22,0,0,1,2.7-6.6,9,9,0,0,1,7-2.84,5.13,5.13,0,0,1,4.83,2.56l.24-2.29h5.46Zm-5-7.81q.6-5.75-2.94-5.76-3.92,0-4.56,6.07a10.29,10.29,0,0,0,.23,4.65q.71,1.62,3,1.62a3.47,3.47,0,0,0,3.44-2.37A17.21,17.21,0,0,0,119.5,53.64Z" fill="#013e6b"/><path d="M157.74,64.07h-5.82l1.38-13.17a1.58,1.58,0,0,0-.69-1.46,2.79,2.79,0,0,0-1.71-.55,5.25,5.25,0,0,0-4.2,2l-1.38,13.17h-5.78l1.38-13.17a1.53,1.53,0,0,0-.7-1.49,3,3,0,0,0-1.77-.52,5.5,5.5,0,0,0-4.06,1.66L133,64h-5.8l2-18.75h5.21l.07,3q2.32-3.35,7.24-3.34,4.14,0,5,3.52a7.29,7.29,0,0,1,3-2.72,11.1,11.1,0,0,1,4.11-.78A4.94,4.94,0,0,1,158,46.62a5.46,5.46,0,0,1,1.1,4.19Z" fill="#013e6b"/><path d="M177.9,64.11h-5.21l-.1-2.47a6,6,0,0,1-2.79,2,9.33,9.33,0,0,1-3.47.65q-7,0-6.32-6.48A6.57,6.57,0,0,1,162.85,53a9.87,9.87,0,0,1,5.89-1.69,6.46,6.46,0,0,1,4.7,1.61l.26-2.49q.24-2.3-3.51-2.3a14.16,14.16,0,0,0-5.91,1.16l-.21-3a23,23,0,0,1,7.9-1.37q7.95,0,7.23,6.88Zm-5-6.55q.39-3.71-3.1-3.71t-4,3.73Q165.53,61,169.1,61A3.45,3.45,0,0,0,172.95,57.55Z" fill="#013e6b"/><path d="M17.86,72h1v0q0,1.09,1.58,1.09a1.54,1.54,0,0,0,1-.35,1.21,1.21,0,0,0,.44-1,1.11,1.11,0,0,0-.5-.91,4.81,4.81,0,0,0-1-.5L20,70.23a4.32,4.32,0,0,1-1.35-.8,1.88,1.88,0,0,1-.58-1.4,1.75,1.75,0,0,1,.74-1.53,2.9,2.9,0,0,1,1.7-.45,3,3,0,0,1,1.39.28,1.21,1.21,0,0,1,.71,1.15v0h-1v0a.6.6,0,0,0-.45-.56,2.05,2.05,0,0,0-.77-.13,1.58,1.58,0,0,0-1,.28,1,1,0,0,0-.42.88,1.17,1.17,0,0,0,.53,1,6,6,0,0,0,1,.53l.45.19a4.08,4.08,0,0,1,1.26.78,1.8,1.8,0,0,1,.55,1.33,1.92,1.92,0,0,1-.76,1.63,2.82,2.82,0,0,1-1.74.5q-2.51,0-2.51-1.83Z" fill="#013e6b"/><path d="M26.19,73.79A2.3,2.3,0,0,1,24.31,73a3.44,3.44,0,0,1,0-4,2.56,2.56,0,0,1,3.75,0,3.43,3.43,0,0,1,0,4A2.3,2.3,0,0,1,26.19,73.79Zm0-.74a1.36,1.36,0,0,0,1.22-.66,2.86,2.86,0,0,0,0-2.8,1.45,1.45,0,0,0-2.44,0,2.86,2.86,0,0,0,0,2.8A1.36,1.36,0,0,0,26.19,73Z" fill="#013e6b"/><path d="M31.2,73.64h-.88V69.07h-.77v-.74h.77v-.25q0-2.12,1.76-2.11a5.23,5.23,0,0,1,.75.07v.72a4.67,4.67,0,0,0-.59,0,1,1,0,0,0-.82.31,1.52,1.52,0,0,0-.21.89v.41h1.55v.74H31.2Z" fill="#013e6b"/><path d="M36.88,72.89v.74a4.52,4.52,0,0,1-1,.16q-1.7,0-1.7-1.85V69.07h-.92v-.74h.92V67.08h.88v1.25h1.55v.74H35.07v2.47a2.62,2.62,0,0,0,.15,1.05.87.87,0,0,0,.87.46A3,3,0,0,0,36.88,72.89Z" fill="#013e6b"/><path d="M38.91,73.64l-1.51-5.31h.93l.93,3.3.12.79h.1l.14-.79.95-3.3h.89l1.05,3.29.18.8h.1l.14-.8.93-3.29h.83l-1.52,5.31h-.89l-1.09-3.47L41,69.4H41l-.16.77-1,3.47Z" fill="#013e6b"/><path d="M48.81,73.64a2.45,2.45,0,0,1-.14-.74,2.57,2.57,0,0,1-1.78.88,1.56,1.56,0,0,1-1.09-.39,1.38,1.38,0,0,1-.45-1.06,1.54,1.54,0,0,1,1-1.41,8.31,8.31,0,0,1,1.82-.5l.47-.09v-.6q0-.88-1.12-.88a1.58,1.58,0,0,0-.77.18.69.69,0,0,0-.4.63v.08h-1v-.07a1.18,1.18,0,0,1,.3-.73,2.23,2.23,0,0,1,1.86-.75,2,2,0,0,1,1.75.66A2.14,2.14,0,0,1,49.55,70v2.06a5.53,5.53,0,0,0,.18,1.58ZM48.67,71,48.4,71a9.57,9.57,0,0,0-1.29.38c-.54.24-.81.55-.81.94a.71.71,0,0,0,.27.57.94.94,0,0,0,.6.2,1.37,1.37,0,0,0,.74-.22,1.62,1.62,0,0,0,.55-.58,1.68,1.68,0,0,0,.2-.83Z" fill="#013e6b"/><path d="M51.8,73.64h-.88V68.33h.88v.94a1.79,1.79,0,0,1,1.63-1.08,1.24,1.24,0,0,1,.47.08v.92a1.5,1.5,0,0,0-.67-.15,1.22,1.22,0,0,0-1.12.66A2.6,2.6,0,0,0,51.8,71Z" fill="#013e6b"/><path d="M58.14,72.27H59v0a1.19,1.19,0,0,1-.28.72,2.12,2.12,0,0,1-1.8.75A2.35,2.35,0,0,1,55.07,73a2.9,2.9,0,0,1-.65-2,3,3,0,0,1,.65-2,2.25,2.25,0,0,1,1.84-.86q2.15,0,2.15,2.62v.29H55.29a2.09,2.09,0,0,0,.44,1.38A1.57,1.57,0,0,0,57,73a1.61,1.61,0,0,0,.73-.15.61.61,0,0,0,.39-.58Zm-2.79-1.84h2.86v-.1a1.33,1.33,0,0,0-1.4-1.41,1.27,1.27,0,0,0-1,.48A2.16,2.16,0,0,0,55.35,70.43Z" fill="#013e6b"/><path d="M63.52,73.64V66.27h4.17v.81H64.48v2.54h2.8v.74h-2.8v3.28Z" fill="#013e6b"/><path d="M72.17,73.64A2.44,2.44,0,0,1,72,72.9a2.58,2.58,0,0,1-1.78.88,1.56,1.56,0,0,1-1.09-.39,1.37,1.37,0,0,1-.45-1.06,1.54,1.54,0,0,1,1-1.41,8.33,8.33,0,0,1,1.82-.5l.47-.09v-.6q0-.88-1.12-.88a1.58,1.58,0,0,0-.76.18.69.69,0,0,0-.4.63v.08h-1v-.07a1.18,1.18,0,0,1,.3-.73A2.23,2.23,0,0,1,71,68.18a2,2,0,0,1,1.75.66A2.14,2.14,0,0,1,72.92,70v2.06a5.52,5.52,0,0,0,.19,1.58ZM72,71l-.27.07a9.71,9.71,0,0,0-1.29.38c-.54.24-.81.55-.81.94a.7.7,0,0,0,.27.57,1,1,0,0,0,.6.2,1.36,1.36,0,0,0,.74-.22,1.61,1.61,0,0,0,.55-.58,1.68,1.68,0,0,0,.2-.83Z" fill="#013e6b"/><path d="M77.6,72.27h.89v0a1.21,1.21,0,0,1-.27.72,2,2,0,0,1-1.75.75A2.23,2.23,0,0,1,74.6,73a3.72,3.72,0,0,1,0-4,2.23,2.23,0,0,1,1.86-.81,2.12,2.12,0,0,1,1.75.72,1.17,1.17,0,0,1,.27.74v0H77.6v0q0-.73-1.08-.73a1.35,1.35,0,0,0-1.23.65,3.14,3.14,0,0,0,0,2.83,1.35,1.35,0,0,0,1.23.65,1.52,1.52,0,0,0,.71-.15.61.61,0,0,0,.37-.58Z" fill="#013e6b"/><path d="M82.84,72.89v.74a4.53,4.53,0,0,1-1,.16q-1.7,0-1.7-1.85V69.07h-.92v-.74h.92V67.08H81v1.25h1.55v.74H81v2.47a2.64,2.64,0,0,0,.15,1.05A.87.87,0,0,0,82,73,3,3,0,0,0,82.84,72.89Z" fill="#013e6b"/><path d="M86.15,73.79A2.3,2.3,0,0,1,84.28,73a3.44,3.44,0,0,1,0-4A2.56,2.56,0,0,1,88,69a3.42,3.42,0,0,1,0,4A2.29,2.29,0,0,1,86.15,73.79Zm0-.74a1.36,1.36,0,0,0,1.22-.66,2.85,2.85,0,0,0,0-2.8,1.45,1.45,0,0,0-2.44,0,2.86,2.86,0,0,0,0,2.8A1.37,1.37,0,0,0,86.15,73Z" fill="#013e6b"/><path d="M90.68,73.64h-.88V68.33h.88v.94a1.79,1.79,0,0,1,1.62-1.08,1.25,1.25,0,0,1,.48.08v.92a1.51,1.51,0,0,0-.67-.15,1.22,1.22,0,0,0-1.12.66A2.61,2.61,0,0,0,90.68,71Z" fill="#013e6b"/><path d="M95.28,73.41,93,68.33h1l1.78,3.94,1.67-3.94h.89l-2.24,5.31a5.74,5.74,0,0,1-.81,1.49,1.93,1.93,0,0,1-1.5.57H93.1V75h.5a1.38,1.38,0,0,0,1-.36,4.24,4.24,0,0,0,.54-1Z" fill="#013e6b"/><polygon points="84.41 31.52 88.37 26.58 98.92 22.73 87.91 33.66 84.41 31.52" fill="#14a1d7"/><path d="M102.72,2.45S85-1.45,77.36,9.27c0,0-5.59,6.72-.74,12.05,0,0,5,5.67,14.33,3,0,0,4.63-1.53,6.13-5.4,0,0,7.59,2.13,13.14-2,0,0,5.81-4.47,1.7-10C109.6,3.75,102.72,2.45,102.72,2.45Z" fill="url(#b)"/><path d="M77.36,9.33s-5.59,6.72-.74,12.05c0,0,5,5.67,14.33,3,0,0,4.63-1.53,6.13-5.4,0,0,7.59,2.13,13.14-2C110.23,17,84.08,18.3,77.36,9.33Z" fill="#14a1d7"/><path d="M86,25.53a13.59,13.59,0,0,1-9.91-3.91c-5-5.5.36-12.4.71-12.83C81.39,2.38,89.4,1,95.31,1a38.24,38.24,0,0,1,7.49.71c.27.05,7.12,1.38,9.57,4.68,4.42,6-1.76,10.81-1.82,10.86A14.74,14.74,0,0,1,101.66,20h0a20.45,20.45,0,0,1-4.27-.45c-1.75,3.73-6.1,5.2-6.3,5.27a18.34,18.34,0,0,1-5.08.75ZM95.31,2.26c-5.63,0-13.23,1.26-17.5,7.25l0,0c-.21.26-5.19,6.38-.76,11.25a12.6,12.6,0,0,0,9,3.51,17.13,17.13,0,0,0,4.71-.7s4.36-1.49,5.73-5l.2-.52.54.15a18.47,18.47,0,0,0,4.46.53,13.36,13.36,0,0,0,8.15-2.42c.21-.16,5.27-4.17,1.57-9.15-2.16-2.92-8.77-4.2-8.83-4.21a37.75,37.75,0,0,0-7.25-.68Z" fill="url(#c)"/></svg>